<svg width="1024" height="1024" viewBox="0 0 1024 1024" fill="none" xmlns="http://www.w3.org/2000/svg">
<path d="M512 998.4C780.631 998.4 998.4 780.631 998.4 512C998.4 243.369 780.631 25.6 512 25.6C243.369 25.6 25.6 243.369 25.6 512C25.6 780.631 243.369 998.4 512 998.4Z" stroke="black" stroke-width="51.2"/>
<path d="M709.973 203.648L680.938 186.884C666.105 178.32 647.138 183.402 638.574 198.235L549.728 352.122C541.164 366.955 546.246 385.922 561.079 394.486L590.114 411.25C604.947 419.813 623.914 414.731 632.478 399.898L721.325 246.011C729.889 231.178 724.806 212.211 709.973 203.648Z" fill="black"/>
<path d="M687.531 497.325L437.827 353.159C422.994 344.595 404.028 349.677 395.464 364.51L374.509 400.804C365.945 415.637 371.028 434.604 385.861 443.168L635.564 587.334C650.397 595.898 669.364 590.816 677.928 575.983L698.882 539.689C707.446 524.856 702.364 505.889 687.531 497.325Z" fill="black"/>
<path fill-rule="evenodd" clip-rule="evenodd" d="M347.861 446.962C280.403 558.713 203.225 606.683 127.521 664.294C158.955 701.753 192.829 734.104 228.629 762.379L345.764 648.429L267.268 790.736C359.862 854.123 463.836 893.544 573.218 921.617C564.188 813.764 601.52 716.537 651.29 622.147L347.861 446.962Z" fill="black"/>
<path d="M655.595 359.858L572.845 312.082L534.221 378.98L616.972 426.756L655.595 359.858Z" fill="black"/>
</svg>
