<svg width="765" height="766" viewBox="0 0 765 766" fill="none" xmlns="http://www.w3.org/2000/svg">
<path d="M669.5 31.8333H95.5002C60.338 31.8333 31.8335 60.3378 31.8335 95.4999V605.833C31.8335 640.995 60.338 669.5 95.5002 669.5H669.5C704.662 669.5 733.167 640.995 733.167 605.833V95.4999C733.167 60.3378 704.662 31.8333 669.5 31.8333Z" stroke="#020202" stroke-width="63.6667" stroke-miterlimit="10"/>
<path d="M127.5 765.166V669.5" stroke="#020202" stroke-width="63.6667" stroke-miterlimit="10"/>
<path d="M637.5 765.166V669.5" stroke="#020202" stroke-width="63.6667" stroke-miterlimit="10"/>
<path d="M318.833 510.167C406.831 510.167 478.167 438.831 478.167 350.833C478.167 262.836 406.831 191.5 318.833 191.5C230.836 191.5 159.5 262.836 159.5 350.833C159.5 438.831 230.836 510.167 318.833 510.167Z" stroke="#020202" stroke-width="63.6667" stroke-miterlimit="10"/>
<path d="M573.833 286.833H637.5" stroke="#020202" stroke-width="63.6667" stroke-miterlimit="10"/>
<path d="M573.833 414.5H637.5" stroke="#020202" stroke-width="63.6667" stroke-miterlimit="10"/>
<path d="M573.833 541.833H637.5" stroke="#020202" stroke-width="63.6667" stroke-miterlimit="10"/>
<path d="M318.833 127.5V350.833" stroke="#020202" stroke-width="63.6667" stroke-miterlimit="10"/>
<path d="M127.5 510.167L318.833 350.833" stroke="#020202" stroke-width="63.6667" stroke-miterlimit="10"/>
<path d="M510.167 510.167L318.833 350.833" stroke="#020202" stroke-width="63.6667" stroke-miterlimit="10"/>
</svg>
